<svg width="24" height="24" viewBox="0 0 24 24" fill="none" xmlns="http://www.w3.org/2000/svg">
<g opacity="0.6">
<path d="M9.90371 16.5483L9.91626 16.5476L9.92879 16.5466C11.315 16.4349 12.7076 16.4349 14.0938 16.5466L14.1048 16.5475L14.1159 16.5481C14.854 16.5912 15.5888 16.6834 16.3154 16.8243C17.9271 17.1512 18.6034 17.6231 18.8479 18.081C19.0507 18.4879 19.0507 18.9731 18.8479 19.38C18.598 19.8488 17.9451 20.3483 16.3204 20.6324L16.3077 20.6346L16.295 20.6372C15.5698 20.7834 14.8359 20.8784 14.0983 20.9216L14.0727 20.9231L14.0473 20.9259C13.3842 20.999 12.7125 21 11.968 21H10.7063C10.4222 20.9659 10.1423 20.9478 9.86698 20.9467C9.13977 20.9081 8.41606 20.8165 7.70128 20.6727L7.70128 20.6726L7.69236 20.6709C6.08999 20.3636 5.4068 19.8732 5.16285 19.4096C5.05743 19.208 5.001 18.9809 5.00011 18.7488L5.00006 18.7434C4.99791 18.5115 5.05231 18.284 5.15672 18.082L5.1573 18.0809C5.39279 17.624 6.0705 17.1249 7.68549 16.8268L7.6855 16.8269L7.69658 16.8247C8.42548 16.6816 9.16285 16.5893 9.90371 16.5483ZM12.0026 3C14.3244 3 16.2539 4.94354 16.2539 7.40036C16.2539 9.85717 14.3244 11.8007 12.0026 11.8007C9.68089 11.8007 7.75131 9.85717 7.75131 7.40036C7.75131 4.94354 9.68089 3 12.0026 3Z" stroke="black" stroke-width="2"/>
</g>
</svg>
