<svg width="26" height="26" viewBox="0 0 26 26" fill="none" xmlns="http://www.w3.org/2000/svg">
<path opacity="0.5" d="M21.4853 4.51472L21.1317 4.86827L21.4853 4.51472ZM13 24.04V24.54H13.0006L13 24.04ZM24.04 13L24.54 13.0006V13H24.04ZM6.47872 16.36V15.86H5.27161L6.12517 16.7136L6.47872 16.36ZM8.53936 18.4206L8.18575 18.7743L8.192 18.7803L8.53936 18.4206ZM8.32744 19.2303L8.45405 19.714H8.45405L8.32744 19.2303ZM7.86064 19.0994L8.22034 18.752L8.21419 18.7458L7.86064 19.0994ZM4.98064 16.2194L4.62703 16.5729L4.62709 16.5729L4.98064 16.2194ZM4.98064 15.5406L4.62709 15.1871L4.62703 15.1871L4.98064 15.5406ZM7.86064 12.6606L7.51323 12.3009L7.50709 12.3071L7.86064 12.6606ZM8.53351 12.6665L8.88707 12.3129H8.88706L8.53351 12.6665ZM8.53936 13.3394L8.89297 13.693L8.899 13.6867L8.53936 13.3394ZM6.47872 15.4L6.12517 15.0464L5.27161 15.9H6.47872V15.4ZM21.16 10.12L20.66 10.1194V10.1206L21.16 10.12ZM21.0194 10.4594L20.6663 10.1053L20.6658 10.1058L21.0194 10.4594ZM21.0194 9.78064L20.6658 10.1342L20.6663 10.1347L21.0194 9.78064ZM18.1394 6.90064L18.493 6.54703L18.4867 6.541L18.1394 6.90064ZM17.4665 6.90649L17.1129 6.55294V6.55294L17.4665 6.90649ZM17.4606 7.57936L17.1009 7.92677L17.1071 7.93291L17.4606 7.57936ZM19.5213 9.64V10.14H20.7284L19.8748 9.28645L19.5213 9.64ZM19.5213 10.6L19.8748 10.9536L20.7284 10.1H19.5213V10.6ZM17.4606 12.6606L17.107 12.307L17.101 12.3133L17.4606 12.6606ZM18.1394 13.3394L18.4868 13.6991L18.4929 13.6929L18.1394 13.3394ZM13 0.5C6.09644 0.5 0.5 6.09644 0.5 13H1.5C1.5 6.64873 6.64873 1.5 13 1.5V0.5ZM21.8388 4.16116C19.4946 1.81696 16.3152 0.5 13 0.5V1.5C16.05 1.5 18.9751 2.7116 21.1317 4.86827L21.8388 4.16116ZM25.5 13C25.5 9.68479 24.183 6.50537 21.8388 4.16116L21.1317 4.86827C23.2884 7.02494 24.5 9.95001 24.5 13H25.5ZM13 25.5C19.9036 25.5 25.5 19.9036 25.5 13H24.5C24.5 19.3513 19.3513 24.5 13 24.5V25.5ZM0.5 13C0.5 19.9036 6.09644 25.5 13 25.5V24.5C6.64873 24.5 1.5 19.3513 1.5 13H0.5ZM13 23.54C7.17892 23.54 2.46 18.8211 2.46 13H1.46C1.46 19.3734 6.62663 24.54 13 24.54V23.54ZM23.54 12.9994C23.5335 18.8181 18.8181 23.5335 12.9994 23.54L13.0006 24.54C19.3707 24.5329 24.5329 19.3707 24.54 13.0006L23.54 12.9994ZM13 2.46C18.8211 2.46 23.54 7.17892 23.54 13H24.54C24.54 6.62663 19.3734 1.46 13 1.46V2.46ZM2.46 13C2.46 7.17892 7.17892 2.46 13 2.46V1.46C6.62663 1.46 1.46 6.62663 1.46 13H2.46ZM15.88 16.86C16.4212 16.86 16.86 16.4212 16.86 15.88H15.86C15.86 15.869 15.869 15.86 15.88 15.86V16.86ZM6.47872 16.86H15.88V15.86H6.47872V16.86ZM8.89291 18.0671L6.83227 16.0064L6.12517 16.7136L8.18581 18.7742L8.89291 18.0671ZM9.15396 19.0141C9.24364 18.6714 9.14147 18.3071 8.88671 18.061L8.192 18.7803C8.1868 18.7753 8.18472 18.7678 8.18655 18.7608L9.15396 19.0141ZM8.45405 19.714C8.79669 19.6243 9.06427 19.3567 9.15396 19.0141L8.18655 18.7608C8.18838 18.7538 8.19384 18.7484 8.20083 18.7466L8.45405 19.714ZM7.50099 19.4467C7.74705 19.7015 8.11141 19.8036 8.45405 19.714L8.20083 18.7466C8.20783 18.7447 8.21526 18.7468 8.22028 18.752L7.50099 19.4467ZM4.62709 16.5729L7.50709 19.4529L8.21419 18.7458L5.33419 15.8658L4.62709 16.5729ZM4.62703 15.1871C4.24446 15.5698 4.24446 16.1902 4.62703 16.5729L5.33425 15.8659C5.34205 15.8737 5.34205 15.8863 5.33425 15.8941L4.62703 15.1871ZM7.50709 12.3071L4.62709 15.1871L5.33419 15.8942L8.21419 13.0142L7.50709 12.3071ZM8.88706 12.3129C8.50905 11.9349 7.89782 11.9296 7.51328 12.301L8.20799 13.0203C8.20015 13.0279 8.18767 13.0278 8.17996 13.02L8.88706 12.3129ZM8.899 13.6867C9.2704 13.3022 9.26508 12.691 8.88707 12.3129L8.17996 13.02C8.17224 13.0123 8.17214 12.9999 8.17971 12.992L8.899 13.6867ZM6.83227 15.7536L8.89291 13.6929L8.18581 12.9858L6.12517 15.0464L6.83227 15.7536ZM15.88 14.9H6.47872V15.9H15.88V14.9ZM16.86 15.88C16.86 15.3388 16.4212 14.9 15.88 14.9V15.9C15.869 15.9 15.86 15.891 15.86 15.88H16.86ZM20.66 10.1206C20.66 10.1148 20.6623 10.1093 20.6663 10.1053L21.3724 10.8134C21.5568 10.6296 21.6603 10.3798 21.66 10.1194L20.66 10.1206ZM20.6663 10.1347C20.6623 10.1307 20.66 10.1252 20.66 10.1194L21.66 10.1206C21.6603 9.86017 21.5568 9.61041 21.3724 9.42656L20.6663 10.1347ZM17.7858 7.25419L20.6658 10.1342L21.3729 9.42709L18.4929 6.54709L17.7858 7.25419ZM17.82 7.26004C17.8123 7.26776 17.7999 7.26787 17.792 7.26028L18.4867 6.541C18.1022 6.1696 17.491 6.17492 17.1129 6.55294L17.82 7.26004ZM17.8203 7.232C17.8279 7.23986 17.8278 7.25233 17.82 7.26004L17.1129 6.55294C16.7349 6.93095 16.7296 7.54218 17.101 7.92672L17.8203 7.232ZM19.8748 9.28645L17.8142 7.22581L17.1071 7.93291L19.1677 9.99356L19.8748 9.28645ZM10.12 10.14H19.5213V9.14H10.12V10.14ZM10.14 10.12C10.14 10.131 10.131 10.14 10.12 10.14V9.14C9.57876 9.14 9.14 9.57876 9.14 10.12H10.14ZM10.12 10.1C10.131 10.1 10.14 10.109 10.14 10.12H9.14C9.14 10.6612 9.57876 11.1 10.12 11.1V10.1ZM19.5213 10.1H10.12V11.1H19.5213V10.1ZM17.8142 13.0142L19.8748 10.9536L19.1677 10.2464L17.1071 12.3071L17.8142 13.0142ZM17.82 12.98C17.8278 12.9877 17.8279 13.0001 17.8203 13.008L17.101 12.3133C16.7296 12.6978 16.7349 13.3091 17.1129 13.6871L17.82 12.98ZM17.792 12.9797C17.7999 12.9721 17.8123 12.9722 17.82 12.98L17.1129 13.6871C17.491 14.0651 18.1022 14.0704 18.4867 13.699L17.792 12.9797ZM20.6658 10.1058L17.7858 12.9858L18.4929 13.6929L21.3729 10.8129L20.6658 10.1058Z" fill="black"/>
</svg>
